HIERARCHY
ROOT root
{
	OFFSET	0	13.1	24.9
	CHANNELS 6  Xposition Yposition Zposition Xrotation Yrotation Zrotation
	JOINT spine_1
	{
		OFFSET	0	9.99999	0
		CHANNELS 3  Xrotation Yrotation Zrotation
		JOINT spine_2
		{
			OFFSET	0	112	-10
			CHANNELS 3  Xrotation Yrotation Zrotation
			JOINT spine_3
			{
				OFFSET	0	206.5	19.3
				CHANNELS 3  Xrotation Yrotation Zrotation
				JOINT spine_4
				{
					OFFSET	0	110.4	14.6
					CHANNELS 3  Xrotation Yrotation Zrotation
					JOINT neck_1
					{
						OFFSET	0	71.8	-50.3
						CHANNELS 3  Xrotation Yrotation Zrotation
						JOINT neck_2
						{
							OFFSET	0	86.2	-25.8
							CHANNELS 3  Xrotation Yrotation Zrotation
							JOINT head_ee
							{
								OFFSET	0	179.8	-8.7
								CHANNELS 3  Xrotation Yrotation Zrotation
								End Site
								{
									OFFSET	1	0	0
								}
							}
						}
					}
					JOINT left_clavicle
					{
						OFFSET	-43.2	22.4	-70.8
						CHANNELS 3  Xrotation Yrotation Zrotation
						JOINT left_shoulder
						{
							OFFSET	-93.9	-5.79999	48.7
							CHANNELS 3  Xrotation Yrotation Zrotation
							JOINT left_elbow
							{
								OFFSET	-291.4	-30.8	15.2
								CHANNELS 3  Xrotation Yrotation Zrotation
								JOINT left_lowarm_twist
								{
									OFFSET	-110.7	-3.89999	13.6
									CHANNELS 3  Xrotation Yrotation Zrotation
									JOINT left_hand
									{
										OFFSET	-110.7	-3.89999	13.6
										CHANNELS 3  Xrotation Yrotation Zrotation
										JOINT left_ee
										{
											OFFSET	-80.8	-5.10001	12.1
											CHANNELS 3  Xrotation Yrotation Zrotation
											End Site
											{
												OFFSET	1	0	0
											}
										}
									}
								}
							}
						}
					}
					JOINT right_clavicle
					{
						OFFSET	43.2	22.4	-70.8
						CHANNELS 3  Xrotation Yrotation Zrotation
						JOINT right_shoulder
						{
							OFFSET	93.9	-5.79999	48.7
							CHANNELS 3  Xrotation Yrotation Zrotation
							JOINT right_elbow
							{
								OFFSET	291.4	-30.8	15.2
								CHANNELS 3  Xrotation Yrotation Zrotation
								JOINT right_lowarm_twist
								{
									OFFSET	110.7	-3.89999	13.6
									CHANNELS 3  Xrotation Yrotation Zrotation
									JOINT right_hand
									{
										OFFSET	110.7	-3.89999	13.6
										CHANNELS 3  Xrotation Yrotation Zrotation
										JOINT right_ee
										{
											OFFSET	80.8	-5.10001	12.1
											CHANNELS 3  Xrotation Yrotation Zrotation
											End Site
											{
												OFFSET	1	0	0
											}
										}
									}
								}
							}
						}
					}
				}
			}
		}
	}
	JOINT left_hip
	{
		OFFSET	-82.8	-127.5	0.300001
		CHANNELS 3  Xrotation Yrotation Zrotation
		JOINT left_knee
		{
			OFFSET	-28.2	-396.7	2.2
			CHANNELS 3  Xrotation Yrotation Zrotation
			JOINT left_ankle
			{
				OFFSET	-11.7	-411.3	35.4
				CHANNELS 3  Xrotation Yrotation Zrotation
				JOINT left_toes
				{
					OFFSET	0	-60	-88.6
					CHANNELS 3  Xrotation Yrotation Zrotation
					JOINT left_foot_ee
					{
						OFFSET	-22.5	-16.5	-42.2
						CHANNELS 3  Xrotation Yrotation Zrotation
						End Site
						{
							OFFSET	1	0	0
						}
					}
				}
			}
		}
	}
	JOINT right_hip
	{
		OFFSET	82.8	-127.5	0.300001
		CHANNELS 3  Xrotation Yrotation Zrotation
		JOINT right_knee
		{
			OFFSET	28.2	-396.7	2.2
			CHANNELS 3  Xrotation Yrotation Zrotation
			JOINT right_ankle
			{
				OFFSET	11.7	-411.3	35.4
				CHANNELS 3  Xrotation Yrotation Zrotation
				JOINT right_toes
				{
					OFFSET	0	-60	-88.6
					CHANNELS 3  Xrotation Yrotation Zrotation
					JOINT right_foot_ee
					{
						OFFSET	22.5	-16.5	-42.2
						CHANNELS 3  Xrotation Yrotation Zrotation
						End Site
						{
							OFFSET	1	0	0
						}
					}
				}
			}
		}
	}
}
MOTION
Frames: 5
Frame Time: 0.02
3177.02 653.055 -1669.29 4.21513709093 63.8389747925 -2.78112662411 -1.64066 0.672317 2.8945 -1.63613 0.486852 2.93137 -1.60628 -0.223251 2.9631 -1.61844 0.247306 2.96119 -11.4373 -7.53417 -16.1255 -10.7198 -3.65033 -17.5429 -0.0 0.0 -0.0 -10.3366 21.2168 -12.7942 -4.81452 -12.1227 81.6451 0.580835 -16.0522 0.0819015 13.6303 0.277414 -1.71497 -0.71839 28.6216 7.28123 -0.0 0.0 -0.0 13.0787 26.6807 -25.7768 29.4278 22.2043 -61.9551 2.3925 49.8362 -1.11161 53.637 1.24131 6.49101 1.08856 8.76898 -3.62841 0.0 0.0 0.0 29.272 11.5676 -10.8513 -8.39068 0.25346 1.26162 -8.77186 21.2324 1.33753 -12.0922 0.0 0.0 -0.0 0.0 -0.0 -5.95342 43.4835 -15.1621 -22.2949 -0.261321 -3.3898 42.2174 -21.3093 5.26234 7.42542 -0.0 -0.0 0.0 0.0 0.0 
3071.4181715 661.856 -1660.58753666 1.68410492992 58.8893461954 0.342141620933 -1.10273 0.547439 1.77583 -1.10108 0.433347 1.80705 -1.08569 0.00874095 1.85825 -1.09038 0.302057 1.83356 -8.76564 -9.40238 -13.4877 -8.28393 -8.18541 -15.3615 -0.0 0.0 -0.0 -7.92849 21.8564 -8.86373 -2.67601 -13.0778 79.2056 0.799798 -21.6132 0.152667 7.84848 0.209689 -0.979848 -2.39011 28.7667 -1.66215 -0.0 0.0 -0.0 12.4224 27.5686 -24.1586 22.9435 21.4944 -60.2452 2.23186 47.8647 -0.990634 51.8553 1.10481 6.30814 0.52159 4.77732 -1.49078 0.0 0.0 0.0 28.0128 14.0087 -9.87132 -13.2885 0.315215 2.01039 1.36379 14.1897 -0.199949 -9.51832 0.0 0.0 -0.0 0.0 -0.0 -14.1746 46.1941 -8.6706 -18.4736 -0.310681 -2.80564 41.6791 -25.3545 5.33841 5.1755 -0.0 -0.0 0.0 0.0 0.0 
3071.42504298 661.856 -1660.50455174 1.68630099627 58.934352836 0.339577243151 -1.10273 0.547439 1.77583 -1.10108 0.433347 1.80705 -1.08569 0.00874095 1.85825 -1.09038 0.302057 1.83356 -8.76564 -9.40238 -13.4877 -8.28393 -8.18541 -15.3615 -0.0 0.0 -0.0 -7.92849 21.8564 -8.86373 -2.67601 -13.0778 79.2056 0.799798 -21.6132 0.152667 7.84848 0.209689 -0.979848 -2.39011 28.7667 -1.66215 -0.0 0.0 -0.0 12.4224 27.5686 -24.1586 22.9435 21.4944 -60.2452 2.23186 47.8647 -0.990634 51.8553 1.10481 6.30814 0.52159 4.77732 -1.49078 0.0 0.0 0.0 28.0128 14.0087 -9.87132 -13.2885 0.315215 2.01039 1.36379 14.1897 -0.199949 -9.51832 0.0 0.0 -0.0 0.0 -0.0 -14.1746 46.1941 -8.6706 -18.4736 -0.310681 -2.80564 41.6791 -25.3545 5.33841 5.1755 -0.0 -0.0 0.0 0.0 0.0 
3050.99630729 656.49 -1661.63762757 1.33226944406 59.6687650989 0.787251525928 -0.994881 0.336477 1.711 -0.99328 0.226937 1.72893 -0.98506 -0.171388 1.73532 -0.989248 0.104781 1.74061 -9.05254 -9.31497 -11.7869 -8.6945 -9.30192 -13.6924 -0.0 0.0 -0.0 -7.29526 21.119 -8.16691 -1.95251 -13.1036 77.7476 0.836188 -22.5003 0.166333 6.80467 0.189573 -0.84803 -2.27823 28.8373 -1.02583 -0.0 0.0 -0.0 12.1542 27.0486 -23.6102 22.0345 20.9979 -59.6724 2.16554 47.0039 -0.941781 54.8285 1.33576 6.61094 0.350049 3.0364 -1.06862 0.0 0.0 0.0 27.8529 13.5672 -9.73289 -14.5395 0.320709 2.20224 3.74618 10.889 -0.543536 -10.6017 0.0 0.0 -0.0 0.0 -0.0 -13.7877 46.0411 -8.40257 -19.6383 -0.299766 -2.98402 41.5314 -25.257 5.32133 5.65634 -0.0 -0.0 0.0 0.0 0.0 
2968.00576705 673.171 -1654.18209596 3.30694728728 58.8266236767 0.355554691706 -1.55212 -0.0810049 0.910951 -1.55166 -0.138805 0.903951 -1.55358 -0.348773 0.845434 -1.55451 -0.210881 0.889902 -8.4264 -10.7151 -11.1448 -8.11828 -12.225 -13.3358 -0.0 0.0 -0.0 -3.81388 19.8224 -3.32398 1.80375 -12.869 75.5126 0.907687 -24.2103 0.194681 1.86913 0.0620967 -0.230643 -3.01662 28.2523 -5.3214 -0.0 0.0 -0.0 9.15459 26.6034 -16.915 14.586 21.8343 -60.9401 2.00024 44.7319 -0.823116 54.7168 1.3268 6.59978 0.197368 -2.10056 -2.19315 0.0 0.0 0.0 22.9714 16.4157 -9.13765 -18.8235 0.307783 2.85925 16.2079 8.87064 -2.25071 -7.9255 0.0 0.0 -0.0 0.0 -0.0 -12.2795 43.2277 -6.69906 -26.0762 -0.174247 -3.96345 40.9441 -24.4465 5.23952 3.91253 -0.0 -0.0 0.0 0.0 0.0 
